<svg width="208" height="32" viewBox="0 0 208 32" fill="none" xmlns="http://www.w3.org/2000/svg">
<path d="M92.4691 21.1328C92.1029 21.1328 91.7889 21.004 91.5273 20.7464C91.2657 20.4889 91.137 20.175 91.141 19.8047C91.137 19.4425 91.2657 19.1326 91.5273 18.875C91.7889 18.6174 92.1029 18.4886 92.4691 18.4886C92.8233 18.4886 93.1312 18.6174 93.3928 18.875C93.6584 19.1326 93.7932 19.4425 93.7972 19.8047C93.7932 20.0502 93.7288 20.2736 93.604 20.4748C93.4833 20.676 93.3223 20.837 93.1211 20.9577C92.9239 21.0745 92.7066 21.1328 92.4691 21.1328ZM97.7378 21H95.3472L99.6998 8.63636H102.465L106.823 21H104.433L101.131 11.1719H101.034L97.7378 21ZM97.8163 16.1523H104.336V17.9513H97.8163V16.1523ZM110.692 8.63636V21H108.452V8.63636H110.692Z" fill="white"/>
<g clip-path="url(#clip0_1_2611)">
<path d="M18.3928 20.0185C17.8751 19.8494 17.4017 19.5741 17.0054 19.2118C16.6091 18.8494 16.2993 18.4086 16.0974 17.9198C15.8955 17.431 15.8064 16.9058 15.8361 16.3806C15.8659 15.8554 16.0138 15.3427 16.2697 14.8779L16.3492 14.739L25.0799 0.220245H16.6308C12.2395 0.220197 8.02681 1.89304 4.91424 4.87291C1.80166 7.85277 0.0424864 11.8971 0.0214844 16.1214C0.0923522 18.1521 0.849917 20.1051 2.17921 21.684C3.50851 23.263 5.33696 24.3817 7.38711 24.8705C9.43726 25.3592 11.5972 25.1912 13.5391 24.392C15.481 23.5929 17.0989 22.2061 18.1473 20.4423V20.4978" fill="url(#paint0_linear_1_2611)"/>
<path d="M30.9728 24.1099L37.3277 13.6411L41.9277 6.0761C42.7798 4.68675 43.697 3.2974 44.4913 1.85942C44.6183 1.68306 44.6909 1.47581 44.7009 1.26149C44.7108 1.04717 44.6577 0.834509 44.5475 0.647978C44.4373 0.461447 44.2747 0.30862 44.0782 0.207096C43.8817 0.105572 43.6595 0.0594714 43.437 0.0740988H31.9477C31.5866 0.0740988 30.6478 -0.0926235 30.3301 0.0740988C30.0123 0.240821 29.7957 0.956345 29.6513 1.19948L25.9033 7.45156L18.2703 20.1294L18.1258 20.3725V20.317C17.0775 22.0808 15.4596 23.4676 13.5176 24.2667C11.5757 25.0659 9.4158 25.2339 7.36565 24.7452C5.3155 24.2564 3.48704 23.1377 2.15775 21.5587C0.828456 19.9798 0.0708905 18.0268 2.26461e-05 15.9961C-0.00599895 19.5051 1.18899 22.9184 3.40047 25.709C5.61195 28.4996 8.71692 30.5122 12.2359 31.4362C15.755 32.3601 19.4923 32.144 22.8709 30.8211C26.2495 29.4982 29.0815 27.1422 30.9295 24.1168L30.9728 24.1099Z" fill="url(#paint1_linear_1_2611)"/>
<path d="M49.0046 19.6919L50.1962 17.6981C50.4569 17.967 50.7705 18.1835 51.1189 18.3349C51.4672 18.4864 51.8433 18.5698 52.2254 18.5804C52.4956 18.593 52.7655 18.5501 53.0171 18.4547C53.2687 18.3592 53.4964 18.2133 53.6849 18.0267C53.8734 17.8401 54.0185 17.6171 54.1105 17.3724C54.2025 17.1277 54.2393 16.8669 54.2185 16.6075V8.38947H56.9554V16.6492C56.9554 19.546 55.0562 20.9075 52.4493 20.9075C51.8202 20.9327 51.1922 20.8383 50.6011 20.6297C50.01 20.4211 49.4675 20.1024 49.0046 19.6919ZM59.5985 14.5443C59.5985 10.7444 62.5665 8.18802 66.4228 8.18802C67.516 8.15262 68.5972 8.41651 69.5406 8.94899C70.4841 9.48148 71.251 10.2607 71.7522 11.196L69.4124 12.3005C69.1257 11.7728 68.6971 11.3288 68.1712 11.0148C67.6454 10.7008 67.0415 10.5283 66.4228 10.5152C65.3526 10.5756 64.3468 11.0272 63.6113 11.7774C62.8758 12.5277 62.4661 13.52 62.4661 14.5513C62.4661 15.5825 62.8758 16.5748 63.6113 17.3251C64.3468 18.0753 65.3526 18.5269 66.4228 18.5873C67.0415 18.5743 67.6454 18.4017 68.1712 18.0877C68.6971 17.7737 69.1257 17.3297 69.4124 16.802L71.7522 17.8926C71.2456 18.8247 70.4779 19.6017 69.5361 20.1357C68.5942 20.6698 67.5157 20.9395 66.4228 20.9145C62.5882 20.9075 59.5985 18.3233 59.5985 14.5443ZM74.1641 20.713V8.41727H79.2192C83.2271 8.41727 86.0001 10.8695 86.0001 14.5582C86.0001 18.2469 83.2198 20.713 79.2336 20.713H74.1641ZM83.2054 14.5582C83.2441 14.0451 83.1675 13.5299 82.9809 13.0478C82.7943 12.5657 82.5019 12.1279 82.1238 11.7641C81.7456 11.4003 81.2905 11.1191 80.7893 10.9395C80.2881 10.76 79.7526 10.6863 79.2192 10.7236H76.8794V18.4067H79.1975C79.7326 18.4318 80.2671 18.3485 80.7666 18.1623C81.2662 17.9761 81.7195 17.691 82.0972 17.3257C82.475 16.9603 82.7689 16.5227 82.9597 16.0412C83.1506 15.5597 83.2343 15.045 83.2054 14.5304V14.5582Z" fill="white"/>
</g>
<defs>
<linearGradient id="paint0_linear_1_2611" x1="12.5579" y1="-4.55913" x2="12.5579" y2="19.7893" gradientUnits="userSpaceOnUse">
<stop stop-color="#2A59C4"/>
<stop offset="1" stop-color="#462CC6"/>
</linearGradient>
<linearGradient id="paint1_linear_1_2611" x1="0.0433513" y1="16.01" x2="44.6791" y2="16.01" gradientUnits="userSpaceOnUse">
<stop stop-color="#376DFE"/>
<stop offset="1" stop-color="#693CFF"/>
</linearGradient>
<clipPath id="clip0_1_2611">
<rect width="86" height="32" fill="white"/>
</clipPath>
</defs>
</svg>
