<svg width="44" height="44" viewBox="0 0 44 44" fill="none" xmlns="http://www.w3.org/2000/svg">
<g clip-path="url(#clip0_1_663)">
<path d="M18.0469 26.0162C17.5389 25.8471 17.0744 25.5718 16.6855 25.2095C16.2967 24.8472 15.9927 24.4064 15.7946 23.9177C15.5965 23.4289 15.5091 22.9039 15.5382 22.3787C15.5674 21.8536 15.7126 21.3409 15.9637 20.8762L16.0416 20.7373L24.6082 6.22021H16.318C12.0092 6.22017 7.87579 7.89282 4.82174 10.8723C1.7677 13.8519 0.0416032 17.8957 0.0209961 22.1195C0.0905313 24.1499 0.833851 26.1027 2.13815 27.6815C3.44244 29.2603 5.23651 30.3789 7.24811 30.8676C9.25971 31.3562 11.379 31.1883 13.2844 30.3892C15.1898 29.5901 16.7773 28.2035 17.806 26.4399V26.4955" fill="url(#paint0_linear_1_663)"/>
<path d="M30.3904 30.1071L36.6257 19.6395L41.1393 12.0754C41.9754 10.6862 42.8753 9.29702 43.6547 7.8592C43.7793 7.68287 43.8505 7.47564 43.8603 7.26134C43.87 7.04705 43.8179 6.83441 43.7098 6.6479C43.6017 6.46139 43.4421 6.30858 43.2493 6.20707C43.0566 6.10556 42.8385 6.05946 42.6202 6.07409H31.3469C30.9926 6.07409 30.0715 5.90739 29.7597 6.07409C29.448 6.24079 29.2354 6.95623 29.0937 7.19934L25.4162 13.4507L17.9267 26.1271L17.785 26.3702V26.3146C16.7563 28.0783 15.1689 29.4648 13.2635 30.2639C11.358 31.063 9.23874 31.2309 7.22714 30.7423C5.21554 30.2536 3.42147 29.135 2.11717 27.5562C0.812877 25.9774 0.0695574 24.0247 2.22203e-05 21.9942C-0.00588614 25.5028 1.16663 28.9157 3.33652 31.706C5.50642 34.4963 8.553 36.5087 12.0059 37.4325C15.4587 38.3564 19.1258 38.1402 22.4409 36.8175C25.7559 35.4948 28.5346 33.139 30.3478 30.114L30.3904 30.1071Z" fill="url(#paint1_linear_1_663)"/>
</g>
<defs>
<linearGradient id="paint0_linear_1_663" x1="12.3217" y1="1.4414" x2="12.3217" y2="25.787" gradientUnits="userSpaceOnUse">
<stop stop-color="#2A59C4"/>
<stop offset="1" stop-color="#462CC6"/>
</linearGradient>
<linearGradient id="paint1_linear_1_663" x1="0.0425361" y1="22.0081" x2="43.8389" y2="22.0081" gradientUnits="userSpaceOnUse">
<stop stop-color="#376DFE"/>
<stop offset="1" stop-color="#693CFF"/>
</linearGradient>
<clipPath id="clip0_1_663">
<rect width="44" height="32" fill="white" transform="translate(0 6)"/>
</clipPath>
</defs>
</svg>
