<svg width="62" height="19" viewBox="0 0 62 19" fill="none" xmlns="http://www.w3.org/2000/svg">
<path d="M27.6744 6.2007H23.045V8.79812H27.5421V10.8635H23.045V15.0882H20.7634V4.13529H27.6744V6.2007ZM30.2958 6.32588C29.943 6.32588 29.6344 6.2059 29.3699 5.966C29.1164 5.71564 28.9896 5.42356 28.9896 5.08976C28.9896 4.75596 29.1164 4.46388 29.3699 4.21353C29.6344 3.96317 29.943 3.838 30.2958 3.838C30.6595 3.838 30.9681 3.96317 31.2216 4.21353C31.4862 4.46388 31.6184 4.75596 31.6184 5.08976C31.6184 5.42356 31.4862 5.71564 31.2216 5.966C30.9681 6.2059 30.6595 6.32588 30.2958 6.32588ZM29.2376 15.0882V7.2647H31.3704V15.0882H29.2376ZM38.0511 9.20494H36.1828V12.4595C36.1828 12.7307 36.2545 12.9289 36.3978 13.0541C36.541 13.1793 36.7505 13.2523 37.026 13.2732C37.3015 13.2836 37.6433 13.2784 38.0511 13.2575V15.0882C36.5851 15.2447 35.549 15.1143 34.9428 14.6971C34.3476 14.2798 34.05 13.534 34.05 12.4595V9.20494H32.6116V7.2647H34.05V5.68435L36.1828 5.07412V7.2647H38.0511V9.20494ZM51.1085 4.13529V15.0882H48.8435V7.98447L45.5864 13.0698H45.3219L42.0648 8.00011V15.0882H39.7832V4.13529H42.1309L45.4541 9.31447L48.7608 4.13529H51.1085ZM54.9679 12.0058C55.2545 12.9863 56.0316 13.4766 57.2991 13.4766C58.1148 13.4766 58.732 13.2158 59.151 12.6942L60.8705 13.6331C60.0544 14.7492 58.8532 15.3073 57.266 15.3073C55.8993 15.3073 54.8025 14.9161 53.9759 14.1338C53.1492 13.3514 52.7359 12.3656 52.7359 11.1765C52.7359 9.99774 53.1437 9.01717 53.9593 8.23482C54.775 7.44202 55.8221 7.04564 57.1007 7.04564C58.3132 7.04564 59.3104 7.44202 60.0934 8.23482C60.887 9.02762 61.2838 10.0081 61.2838 11.1765C61.2838 11.4373 61.256 11.7137 61.2011 12.0058H54.9679ZM54.9348 10.4411H59.151C59.0296 9.90906 58.7761 9.51268 58.3903 9.25188C58.0156 8.99108 57.5857 8.8607 57.1007 8.8607C56.5276 8.8607 56.0536 9.00153 55.6788 9.28317C55.3041 9.55437 55.0561 9.94035 54.9348 10.4411Z" fill="#111112"/>
<path fill-rule="evenodd" clip-rule="evenodd" d="M0 5.4623C0 3.07082 3.16075 2.54401 4.60943 4.50348C6.06112 6.46699 6.91648 8.85585 6.92634 11.4336C6.92634 8.87848 7.75715 6.50734 9.17653 4.54978C10.5635 2.63689 13.6192 3.14237 13.6192 5.46231V8.53112C13.6192 12.0904 10.5704 14.9757 6.80961 14.9757C3.04875 14.9757 0 12.0904 0 8.53112V5.4623Z" fill="#1AC84B"/>
</svg>
