<svg width="38" height="38" viewBox="0 0 38 38" fill="none" xmlns="http://www.w3.org/2000/svg">
<circle cx="19" cy="19" r="19" fill="white"/>
<path d="M16.6133 21.3826C16.3708 21.3033 16.1492 21.1743 15.9636 21.0045C15.778 20.8346 15.6329 20.628 15.5384 20.3989C15.4438 20.1698 15.4021 19.9237 15.416 19.6775C15.4299 19.4314 15.4992 19.1911 15.6191 18.9732L15.6563 18.9081L19.7448 12.1032H15.7881C13.7317 12.1032 11.7589 12.8873 10.3013 14.2839C8.84369 15.6806 8.01988 17.5761 8.01004 19.556C8.04323 20.5078 8.39799 21.4232 9.0205 22.1632C9.643 22.9033 10.4993 23.4276 11.4593 23.6567C12.4194 23.8857 13.4309 23.807 14.3403 23.4325C15.2497 23.0579 16.0074 22.4079 16.4983 21.5812V21.6073" fill="url(#paint0_linear_1_2094)"/>
<path d="M22.5045 23.3002L25.4805 18.3935L27.6347 14.8478C28.0337 14.1967 28.4632 13.5455 28.8352 12.8715C28.8947 12.7888 28.9287 12.6917 28.9333 12.5913C28.938 12.4908 28.9131 12.3911 28.8615 12.3037C28.8099 12.2163 28.7337 12.1446 28.6417 12.0971C28.5497 12.0495 28.4456 12.0279 28.3414 12.0347H22.961C22.7919 12.0347 22.3523 11.9566 22.2035 12.0347C22.0547 12.1129 21.9533 12.4482 21.8856 12.5622L20.1305 15.4925L16.5559 21.4346L16.4883 21.5485V21.5225C15.9973 22.3492 15.2397 22.9991 14.3303 23.3737C13.4209 23.7483 12.4094 23.827 11.4493 23.5979C10.4892 23.3689 9.63297 22.8445 9.01047 22.1045C8.38796 21.3644 8.0332 20.4491 8.00001 19.4973C7.99719 21.1419 8.5568 22.7417 9.59243 24.0497C10.6281 25.3576 12.0821 26.3009 13.7301 26.734C15.378 27.167 17.1282 27.0657 18.7104 26.4457C20.2926 25.8257 21.6188 24.7214 22.4842 23.3035L22.5045 23.3002Z" fill="url(#paint1_linear_1_2094)"/>
<defs>
<linearGradient id="paint0_linear_1_2094" x1="13.8808" y1="9.86317" x2="13.8808" y2="21.2752" gradientUnits="userSpaceOnUse">
<stop stop-color="#2A59C4"/>
<stop offset="1" stop-color="#462CC6"/>
</linearGradient>
<linearGradient id="paint1_linear_1_2094" x1="8.0203" y1="19.5038" x2="28.9231" y2="19.5038" gradientUnits="userSpaceOnUse">
<stop stop-color="#376DFE"/>
<stop offset="1" stop-color="#693CFF"/>
</linearGradient>
</defs>
</svg>
